<svg id="Calque_1" data-name="Calque 1" xmlns="http://www.w3.org/2000/svg" xmlns:xlink="http://www.w3.org/1999/xlink" viewBox="0 0 595.28 841.89"><defs><style>.cls-1,.cls-2{fill:#444;}.cls-2,.cls-3,.cls-4,.cls-6{stroke-miterlimit:10;}.cls-2{stroke:url(#Blanc_Noir);}.cls-3,.cls-4,.cls-8{fill:#1d1d1b;}.cls-3{stroke:#1d1d1b;}.cls-4,.cls-6{stroke:#fff;}.cls-5{fill:#868686;}.cls-6{fill:#fff;}.cls-7{fill:#754311;}</style><linearGradient id="Blanc_Noir" x1="228.33" y1="366.94" x2="372.74" y2="366.94" gradientUnits="userSpaceOnUse"><stop offset="0" stop-color="#fff"/><stop offset="1" stop-color="#1d1d1b"/></linearGradient></defs><g id="jayMTe.tif"><path class="cls-1" d="M527.11,544.39c-5.6,5.31-12,4.26-18.08,1.58-3.43-1.51-6.11-2.51-9.69-.56-1.9,1-4.5,1-6.79,1.09-4.47.18-8.95.08-13.42.16-4.05.07-6.21-1.51-6.71-5.06s.35-4.83,5-5.7c2.6-.49,3.57-2.08,3.36-4.1a72.36,72.36,0,0,0-2-8.86l-1.44,0c-1,2.35-2,4.67-2.91,7-3.26,8.39-8.58,14.08-18.29,14.39-2.13.07-4.22.92-6.35,1.18a15.24,15.24,0,0,1-4.42-.14c-2.87-.53-4.29-2.41-4.1-5.33s1.94-4.26,4.89-4.51c4.36-.39,5.27-1.69,3.86-5.69a20.31,20.31,0,0,0-4.48-7.28,58.36,58.36,0,0,1-2.18,6.29c-2.13,4.46-4,9.2-6.86,13.14-5.48,7.43-13.69,9.13-21.64,4.48-3.86-2.27-7.17-2.39-11.27-1.28a32.32,32.32,0,0,1-10.34.88c-6.86-.4-10.68-4.58-10.38-11.43.16-3.76,1.31-7.48,2-11.22.32-1.85.53-3.71.86-6-5.06.29-7.48,3-8.67,6.51-1.58,4.68-2.62,9.56-3.77,14.38-.49,2.09-.63,4.27-1,6.39-.42,2.43-.49,5.25-3.93,5.36-2.72.08-5.36-2.76-5.71-5.89-.13-1.13-.14-2.28-.23-3.79a71.58,71.58,0,0,1-6.82,3.44,24.17,24.17,0,0,1-19.38-.7c-2.45-1.14-4.1-1.34-6.61.48-6.14,4.45-13.55,3.35-17.77-2.19a55.8,55.8,0,0,1-5.34,3.24c-3.6,1.69-7.46,2.38-11,.3-2.47-1.44-4.72-1.17-7.15-.52-8.2,2.19-8.2,2.19-15.45-2.11-5.51,6.41-11.93,7.73-19.5,3.48a6.07,6.07,0,0,0-4.76-.26c-6.32,2.88-11.92,2.07-15.94-1.77-4.88.59-8.76,1.64-12.55,1.39-6.42-.41-10.22-4.86-10.11-11.29a88.14,88.14,0,0,1,1.28-10.32,28.08,28.08,0,0,0,.65-3.9c0-.88-.47-2.33-1-2.49a3.62,3.62,0,0,0-3.08.58c-1.53,1.7-3.28,3.57-3.86,5.67-1.45,5.24-2.32,10.65-3.36,16-.42,2.11-.59,4.26-1,6.36-.51,2.56-2,4.36-4.76,4.15s-5.36-1.36-5.88-4.45c-.37-2.24-.07-4.59-.07-7.32a7.75,7.75,0,0,0-1.88.59c-7.06,5.26-15,6.09-23.22,4-3.27-.82-6-.78-8.92,1.15a14.57,14.57,0,0,1-12,1.7c-9.13-2.37-11.84-7.42-8.61-16.31,2.73-7.53,2.64-8.14-2.44-12.17-.39,2.17-.69,4-1,5.79-.78,4.06-1.06,8.29-2.44,12.13-4.17,11.61-15.36,14.65-25.2,7.14a9.42,9.42,0,0,0-1-.59c-3.43,2-6.47,4.38-9.92,5.7-6.68,2.55-13.05-.2-16.44-6.47C69,528.26,76.3,510,89.93,505.49c4.15-1.38,6.83-1.11,13,1.33,3.77-3.54,6.23-4.09,9.35-1.89,2.67,1.89,4.06,4.37,2.94,7.73-1.22,3.61-2.6,7.17-3.65,10.83-.68,2.37-1.48,5-1.16,7.28.28,2,1.64,4.66,3.31,5.52,2.52,1.3,4.12-1.32,5.33-3.3,3.39-5.55,4.34-11.82,4.54-18.13.06-1.66-1.87-3.32-2.58-5.11-.82-2.05-1.9-4.27-1.78-6.36.17-3.05,2.37-5.12,5.51-5.54a5,5,0,0,1,5.89,4.22c.82,4.1,3.51,5.94,6.83,7.82,7.65,4.32,9.26,9,6.68,17.45a27.23,27.23,0,0,0-1.14,4.32c-.48,3.71,1.77,6.07,5.5,5.93,3.27-.12,4.35-1.34,3.84-4.72-1.41-9.27,1.56-17,8.23-23.39a16.29,16.29,0,0,1,14.16-4.68c3.64.53,6.6,2.14,8,5.83a10.38,10.38,0,0,1-1.58,10.78c-1.2,1.47-3.59,2.31-5.58,2.69-2.15.41-3.45-.94-2.93-3.35a14,14,0,0,1,.56-1.91c.69-1.92,1.59-4.36-.8-5.14-1.34-.44-3.68.89-5,2a13.48,13.48,0,0,0-3.25,4.92c-1.92,4.62-.59,10.46,2.76,13.29s8.7,3.07,13.05.07c6.43-4.41,11-9.86,10.11-18.56a131.34,131.34,0,0,1-.95-21.33c.28-4.81,2.13-9.63,3.88-14.21a14.32,14.32,0,0,1,4.71-5.64c2.84-2.22,6.23-3.29,9.78-1.46,3.24,1.66,4.33,4.81,3.93,8-.83,6.7-2.12,13.35-3.43,20a67.78,67.78,0,0,1-2.59,7.71c2.66-.91,4.7-1.77,6.82-2.3,5.28-1.33,9.2,1.08,9.37,6.5.15,4.57-.87,9.17-1.41,13.76-.25,2.13-.9,4.26-.85,6.37.1,4,2.95,5.48,6.53,3.68s3.91-5,3.85-8.47a112.13,112.13,0,0,1,.11-13.35c.47-4.83,2.64-6.54,6.21-5.87,4.14.76,5.71,3.46,4.84,8.16-.9,4.88-2.06,9.75-2.52,14.68-.55,5.86,1.61,7.46,8.45,6.45-1.85-7.81-1-15.31,3.71-22,4.84-7,11.3-10.54,20.45-8.79,1-6.77,1.85-13.29,2.77-19.8a27.22,27.22,0,0,1,.65-3.4c.79-2.85,2.31-4.87,5.66-4.28,3.07.55,5.32,2.23,5.45,5.52.09,2.11-.53,4.24-.81,6.36-1.68,12.81-3.45,25.61-4.95,38.44a13.1,13.1,0,0,0,1.21,6.26c1,2.35,3.31,2.53,5.58,2s2.43-2.13,2.38-4.21c-.2-7.45-.24-14.9-.16-22.35a20.21,20.21,0,0,1,1.08-5.84c1.27-3.91,3.21-5.17,6.53-4.59,3.71.66,5.89,3.18,5.66,7a45.11,45.11,0,0,1-1.17,6.35c-.65,3.08-1.45,6.13-2,9.22a27.61,27.61,0,0,0-.44,5.44c0,4,2,7.93,4.13,7.73,3.64-.36,3.8-3.72,4.38-6.34.79-3.55,1.2-7.19,1.8-10.78a38.31,38.31,0,0,1,1-5.35c1.24-3.95,4.31-5.68,8-4.76,3.09.77,4.7,3.43,4.12,7.47-.46,3.28-1.39,6.48-1.95,9.75a34.09,34.09,0,0,0-.67,6.89c.11,3.21,2.08,4.83,4.75,4.29,3.17-.65,3.07-2.49,2.33-5.2-3.69-13.59,7.33-27.9,20.91-27.44,10.34.35,12.61,8.89,9.78,16.22-1.2,3.1-4,3.2-6.77,2.44-2.26-.62-3.72-1.89-3.33-4.68.2-1.41-.4-2.92-.64-4.39-1.84.48-4,.49-5.43,1.53-3.64,2.67-4.59,9-2.51,13.73a11.11,11.11,0,0,0,11.69,6.67,15.3,15.3,0,0,0,10.36-6.31c3.91-5.33,5-11.34,4.71-17.87-.4-8.27-.61-16.57-.45-24.84a23.32,23.32,0,0,1,2.32-9.07,18.08,18.08,0,0,1,5.14-6.54c7.09-5.42,13.89-2.45,15,6.39a37.32,37.32,0,0,1-2.6,19c-1.38,3.35-2.82,6.67-4.5,10.65l4.61-1.34c6.52-1.88,10.6.87,10.7,7.56a52,52,0,0,1-1.15,9.32,43.1,43.1,0,0,1-1.38,4.77c-.9,3.13-1.54,6.42,1.31,8.77s6.18,1.55,9.7.05c-.49-1.69-.93-3.22-1.39-4.74a20.5,20.5,0,0,1,15.35-25.9c8.49-1.73,13.67,2.6,13.37,11.2-.2,5.59-2.77,10.16-6.26,14.31-1.37,1.63-2.87,3.14-4.52,4.94,2.66,2.9,5.53,2.8,8,.68,6.58-5.72,9.42-13.49,10.82-21.8.23-1.42-1-3.07-1.52-4.64-.9-2.86-1.1-5.95,1.58-7.69a9.28,9.28,0,0,1,6.45-1.06c3,.69,4.15,3.36,4.36,6.5.13,2,.31,4.71,1.59,5.94,5.16,4.95,9.38,10.23,9.3,18.06l1.31,0a64.45,64.45,0,0,0,3.81-6.09c1.31-2.67,2.22-5.53,3.4-8.27,1.34-3.13,1.44-6-.83-8.85a6,6,0,0,1-.13-7.81c1.77-2.37,4.36-2.28,6.83-1.68,3.08.74,5,2.83,4.76,6.09-.32,4.25,1.75,7.17,4.46,10.08a40.43,40.43,0,0,1,5.59,7.55c2.6,4.62,2.6,7.31.75,13.93l6.72-.34c-.42-1.49-.59-2.4-.92-3.25a22.81,22.81,0,0,1,8.68-26.76,16.5,16.5,0,0,1,11.39-2.66c7.25.86,10.48,5.43,8.75,12.55-1.45,5.94-4.59,11-8.48,15.61l-3,3.48c4.41,2,10-.46,13.06,4.28ZM83.29,530.73c1.29,2.13,2.1,5,4,6.21,2.8,1.78,5.32-.57,7.22-2.67a17,17,0,0,0,3.24-4.94A75.29,75.29,0,0,0,101.09,519c1-4.07,0-5-4.26-4.72C89.15,514.77,84,521.22,83.29,530.73Zm187.49-14.26c-7.47,0-12.64,5.28-13.64,12.73-.62,4.58,1,8.69,3.74,9.3s6.57-2.31,7.59-6.6C269.63,527,270,521.93,270.78,516.47Zm235.9,14.93,1.79.76c2.6-4.12,5.39-8.13,7.71-12.4.93-1.7.87-4.06-1.49-5.12-2.19-1-4.37-.64-5.74,1.43A17.83,17.83,0,0,0,506.68,531.4ZM422,520.21c-.49-.73-1.26-2.65-2.68-3.67-.76-.55-2.9.05-4,.79-3.3,2.32-4.85,9.22-2.84,12.55a3.45,3.45,0,0,0,3,1.33C418.53,530.28,422.06,524.6,422,520.21ZM379.48,482.6c-5.52,1.27-8,9-6.07,18.53C376.26,495.32,379.37,489.59,379.48,482.6ZM197.73,502.36c4.88-8.07,6.21-14,4.33-18.25C196.32,489.47,197.81,496.15,197.73,502.36Z"/><path class="cls-2" d="M311.52,290.36c3,.69,6.09,1.3,9.1,2.1a78.24,78.24,0,0,1,9,2.79c16.6,6.73,25,19.51,23.8,37.36-.36,5.32.64,8.61,5.52,11.07A26,26,0,0,1,369.55,354c4.27,7.25,3.48,14-2.57,19.76-2.77,2.63-5.63,5.17-8.4,7.8-7,6.64-8.13,8.51-11.56,18.36a47,47,0,0,1,5,2c3.93,2.09,8.1,3.91,11.6,6.61,6.76,5.21,8.7,12.5,6.3,20.5-2.35,7.82-8,12.4-16.18,13.61-9.08,1.34-17.88-.65-26.66-2.43-7.31-1.47-14.6-3.14-21.8-5.07a22,22,0,0,0-13.56.78c-12.09,4.2-24.39,7.82-37.37,7.61-12.81-.2-21.73-10.65-19.38-22.89,1.59-8.26,7.1-13.66,14.62-17.08,1.64-.74,3.37-1.3,5.38-2.06-1.43-4.69-3.05-9-6.59-12.15-4.56-4.12-9.22-8.12-13.85-12.16-6.37-5.56-7.49-12.89-2.85-20,3.11-4.75,6.69-9.14,12-11.7,2.49-1.21,2.8-2.75,2.54-5.53-.61-6.54-1.11-13.23-.37-19.72.95-8.32,6-14.59,13-19.18,8.37-5.48,17.69-8.2,27.51-9.52,1.79-.24,3.53-.77,5.29-1.16ZM313.84,370c3.92.28,4.53-1.92,4.76-4.08.51-4.88,3.08-7.71,7.41-10.12s9-5.64,11.7-9.7c9.66-14.4,2.62-34.17-13.64-40-10.79-3.89-22-3.6-33-2.37a94.13,94.13,0,0,0-20.72,4.84,19.39,19.39,0,0,0-13.08,14.52c-3.32,14.51,5.63,30.34,20.39,34.85,4.2,1.29,6.23,3.17,6.07,7.58-.07,2,.06,4.45,3.45,4.42.18-1,.28-2,.53-2.94.53-2-1.38-5.17,2.38-5.3.45,0,1.37,3.54,1.47,5.47.24,5.2.4,5.43,6.09,4.49a37.14,37.14,0,0,1,.58-6.32c.29-1.14,1.59-2,2.43-3,.57,1,1.5,2,1.62,3.11a59.79,59.79,0,0,1,.08,6.69c7.26.31,7.26.31,7.19-5.81a5.43,5.43,0,0,1,0-2,25.15,25.15,0,0,1,1.76-3c.71.9,1.8,1.71,2,2.71A40.23,40.23,0,0,1,313.84,370Z"/><path class="cls-1" d="M237.13,488.67c3.78,0,5.8,2.33,5.73,6.52-.08,4.37-2.62,6.94-6.77,6.85-4-.08-6.76-2.82-6.69-6.52S233,488.64,237.13,488.67Z"/><path class="cls-1" d="M306.8,338.59c.05-8,5-13.31,12.35-13.16,6.83.14,13.74,6.26,13.61,12-.14,6.06-8.43,13.16-15.36,13.16C311.48,350.64,306.76,345.27,306.8,338.59Z"/><path class="cls-1" d="M294.34,339.2c.11,4.61-1.34,8.58-5.6,10.81s-8.38.82-12.14-1.67a16.45,16.45,0,0,1-2.92-2.68c-4.21-4.65-4.92-8.32-2.52-12.53a13.46,13.46,0,0,1,15.24-6.69c4.31.95,7.35,4.88,7.92,10.28A22.78,22.78,0,0,1,294.34,339.2Z"/><path class="cls-1" d="M296.82,355.31c-.13-3.64,1.69-5.57,5-5.49,3,.07,4.69,2,4.57,5.49Z"/></g><g id="Pinceau_" data-name="Pinceau 🖌"><path class="cls-3" d="M330.6,413.43l-5.27,8.69s.37,12.5,16.83,10c0,0,11.1-2.85,16.76-5.49l-16.68-12.14A12.12,12.12,0,0,0,330.6,413.43Z"/><path class="cls-4" d="M357,425.35s-13.84-8.56-14.6-10-6.7-4.38-11.93-1.81l-1-1.64-.2.56-19.51-15.7-1.25-.32-.69-2.89-1.65.47L249.54,358.9s-8.23-.38-4.15,6.17c0,0,41.2,39.17,51.94,42.2v2.17l3.14-.78,24.95,12.87S325.41,439.65,357,425.35Z"/><ellipse class="cls-5" cx="334.46" cy="417.54" rx="2.48" ry="2.37" transform="translate(-172.38 588.77) rotate(-69.97)"/><path class="cls-5" d="M348.92,423.68s-8.49-4-8.68-5.25l-.61-.33s-2.8.67-1,2.55a8.47,8.47,0,0,0,4.59,2.23Z"/><path class="cls-5" d="M327.9,413.76l-2.63,4.14L303,407.31l-1.39-2-1.7.48s2.48-8.16,6.22-9.9l.39,1.62,2.07.74Z"/><ellipse class="cls-6" cx="305.48" cy="401.98" rx="2.37" ry="2.27" transform="translate(-176.81 551.31) rotate(-69.97)"/><path class="cls-6" d="M310.27,402.9l15.22,10.66a1.27,1.27,0,0,1,.29,1.75h0a1.19,1.19,0,0,1-1.69.35L308.87,405a1.27,1.27,0,0,1-.29-1.75h0A1.19,1.19,0,0,1,310.27,402.9Z"/><path class="cls-7" d="M303.8,395l-55.91-34.26s-3.34.85-.86,3.12,41.73,37.8,50.73,41.29C297.76,405.15,300.25,398.08,303.8,395Z"/></g><g id="Pinceau_2" data-name="Pinceau 🖌"><path class="cls-3" d="M270.18,416.22l4.29,9.11s-1.84,13.21-18.09,10.78c0,0-10.83-2.86-16.21-5.56l18.19-13.07S264,413.33,270.18,416.22Z"/><path class="cls-4" d="M242.27,429.2s14.91-9.25,15.85-10.77,7.24-4.72,12.21-2.08l1.21-1.74.14.58,21.44-16.86,1.29-.36,1-3.06,1.6.48,61-37.93s8.31-.52,3.45,6.46c0,0-46,42-57.14,45.32l-.24,2.3-3.08-.78-26.58,13.95S272.34,443.84,242.27,429.2Z"/><ellipse class="cls-5" cx="265.81" cy="420.63" rx="2.66" ry="2.34" transform="translate(-228.78 475.03) rotate(-63.99)"/><path class="cls-5" d="M250.56,427.32s9-4.33,9.34-5.68l.65-.35s2.74.67.73,2.68a9.51,9.51,0,0,1-4.87,2.42Z"/><path class="cls-5" d="M272.85,416.53l2.16,4.34,23.59-11.51,1.63-2.13,1.65.49s-1.54-8.59-5.1-10.37l-.58,1.72-2.16.81Z"/><ellipse class="cls-6" cx="296.76" cy="403.77" rx="2.55" ry="2.24" transform="translate(-196.26 493.38) rotate(-63.99)"/><path class="cls-6" d="M291.84,404.81,275.3,416.29a1.48,1.48,0,0,0-.5,1.85h0a1.11,1.11,0,0,0,1.67.35L293,407a1.47,1.47,0,0,0,.49-1.85h0A1.11,1.11,0,0,0,291.84,404.81Z"/><path class="cls-1" d="M299.27,396.37l60.2-37s3.26.85.51,3.28S313.61,403.19,304.16,407C304.16,407,302.48,399.58,299.27,396.37Z"/></g><path class="cls-8" d="M286.49,279l-4.14-13.65h7.72l1.22,12.33,16.57-6.87a24.26,24.26,0,0,1,20,.42,21.41,21.41,0,0,1,11.91,15.53s4.8,11.82-6.55,13.79-22.16-1.5-22.16-1.5l-14.12,0s-25.32,5-32.14,3.67-9.22-4.38-9.22-4.38-7-13.22,14.77-16.56S286.49,279,286.49,279Z"/></svg>